<?xml version="1.0" standalone="no"?>
<!DOCTYPE svg PUBLIC "-//W3C//DTD SVG 20010904//EN"
 "http://www.w3.org/TR/2001/REC-SVG-20010904/DTD/svg10.dtd">
<svg version="1.0" xmlns="http://www.w3.org/2000/svg"
 width="520.000000pt" height="520.000000pt" viewBox="0 0 520.000000 520.000000"
 preserveAspectRatio="xMidYMid meet">
<metadata>
Created by potrace 1.11, written by Peter Selinger 2001-2013
</metadata>
<g transform="translate(0.000000,520.000000) scale(0.100000,-0.100000)"
fill="#000000" stroke="none">
<path d="M0 2600 l0 -2600 2600 0 2600 0 0 2600 0 2600 -2600 0 -2600 0 0
-2600z m2140 1565 c180 -35 340 -121 445 -238 66 -74 135 -206 161 -305 10
-40 22 -72 25 -72 4 0 22 26 39 58 201 356 454 529 835 572 410 46 754 -63
941 -298 105 -132 189 -365 213 -590 7 -69 11 -478 11 -1235 0 -1077 -1 -1134
-19 -1172 -35 -77 -111 -123 -222 -132 -121 -10 -225 32 -271 111 l-23 41 -6
1105 c-4 979 -7 1115 -22 1197 -64 347 -235 498 -562 495 -260 -2 -462 -120
-648 -379 -51 -71 -111 -202 -144 -314 l-27 -94 -6 -995 c-4 -775 -8 -1001
-18 -1024 -38 -86 -112 -134 -221 -143 -131 -11 -233 34 -276 121 l-25 50 0
1025 c0 628 -4 1069 -10 1136 -29 300 -121 479 -292 562 -81 40 -158 55 -277
55 -257 0 -451 -112 -629 -362 -69 -96 -113 -195 -155 -340 -20 -74 -21 -94
-26 -1075 -5 -796 -9 -1006 -19 -1030 -44 -99 -114 -139 -247 -139 -52 -1
-106 5 -128 13 -52 18 -106 67 -128 116 -18 38 -19 111 -19 1563 0 1669 -4
1560 58 1626 48 50 105 69 212 70 83 1 101 -2 145 -25 99 -51 132 -142 121
-328 -4 -57 -13 -138 -21 -180 -8 -42 -15 -80 -15 -85 0 -6 20 30 45 78 180
353 428 534 795 580 72 9 328 -3 410 -19z"/>
</g>
</svg>
