<?xml version="1.0" standalone="no"?>
<!DOCTYPE svg PUBLIC "-//W3C//DTD SVG 20010904//EN"
 "http://www.w3.org/TR/2001/REC-SVG-20010904/DTD/svg10.dtd">
<svg version="1.0" xmlns="http://www.w3.org/2000/svg"
 width="520.000000pt" height="520.000000pt" viewBox="0 0 520.000000 520.000000"
 preserveAspectRatio="xMidYMid meet">
<metadata>
Created by potrace 1.11, written by Peter Selinger 2001-2013
</metadata>
<g transform="translate(0.000000,520.000000) scale(0.100000,-0.100000)"
fill="#000000" stroke="none">
<path d="M1700 4184 c-80 -11 -210 -48 -287 -84 -111 -52 -175 -96 -257 -177
-84 -84 -141 -163 -206 -285 -27 -51 -50 -88 -50 -83 0 6 7 51 15 100 19 116
19 277 0 341 -16 53 -56 99 -115 130 -28 15 -57 19 -140 19 -98 0 -109 -2
-160 -30 -39 -22 -63 -44 -85 -79 l-30 -49 0 -1536 0 -1536 23 -43 c46 -87
143 -128 280 -120 124 7 207 66 231 164 8 29 11 335 11 971 0 768 3 944 15
1019 28 176 85 318 179 443 184 248 365 350 622 351 97 0 214 -24 281 -58 92
-48 171 -142 218 -263 61 -154 58 -102 64 -1329 6 -1054 7 -1128 24 -1165 40
-89 103 -126 228 -133 138 -8 230 35 275 126 18 35 19 88 24 1027 l5 990 27
96 c56 205 133 336 287 489 80 80 111 103 191 143 110 55 200 77 321 77 115 0
190 -15 274 -55 111 -53 200 -162 244 -295 46 -143 44 -109 50 -1300 6 -1054
7 -1128 24 -1165 23 -51 52 -82 102 -108 34 -18 57 -22 150 -22 94 0 116 3
151 22 53 29 101 78 116 122 10 28 13 280 13 1181 0 1225 0 1216 -51 1424 -87
352 -291 567 -619 652 -81 21 -131 27 -265 31 -249 8 -425 -21 -586 -97 -201
-93 -339 -229 -477 -464 -26 -44 -48 -73 -50 -65 -42 163 -102 282 -190 376
-106 113 -214 175 -387 220 -81 21 -121 26 -275 28 -99 2 -196 1 -215 -1z"/>
</g>
</svg>
